<?xml version="1.0" encoding="UTF-8"?>
<!DOCTYPE svg PUBLIC "-//W3C//DTD SVG 1.1//EN" "http://www.w3.org/Graphics/SVG/1.1/DTD/svg11.dtd">
<!-- Creator: CorelDRAW 2018 (64 Bit Versão de avaliação) -->
<svg xmlns="http://www.w3.org/2000/svg" xml:space="preserve" width="297mm" height="297mm" version="1.1" style="shape-rendering:geometricPrecision; text-rendering:geometricPrecision; image-rendering:optimizeQuality; fill-rule:evenodd; clip-rule:evenodd"
viewBox="0 0 29700 29700"
 xmlns:xlink="http://www.w3.org/1999/xlink">
 <defs>
  <style type="text/css">
   <![CDATA[
    .fil24 {fill:none}
    .fil18 {fill:url(#id0)}
    .fil0 {fill:url(#id1)}
    .fil20 {fill:url(#id2)}
    .fil1 {fill:url(#id3)}
    .fil11 {fill:url(#id4)}
    .fil2 {fill:url(#id5)}
    .fil27 {fill:url(#id6)}
    .fil10 {fill:url(#id7)}
    .fil9 {fill:url(#id8)}
    .fil7 {fill:url(#id9)}
    .fil28 {fill:url(#id10)}
    .fil21 {fill:url(#id11)}
    .fil19 {fill:url(#id12)}
    .fil17 {fill:url(#id13)}
    .fil15 {fill:url(#id14)}
    .fil26 {fill:url(#id15)}
    .fil12 {fill:url(#id16)}
    .fil14 {fill:url(#id17)}
    .fil6 {fill:url(#id18)}
    .fil29 {fill:url(#id19)}
    .fil16 {fill:url(#id20)}
    .fil22 {fill:url(#id21)}
    .fil13 {fill:url(#id22)}
    .fil3 {fill:url(#id23)}
    .fil5 {fill:url(#id24)}
    .fil25 {fill:url(#id25)}
    .fil30 {fill:url(#id26)}
    .fil4 {fill:url(#id27)}
    .fil8 {fill:url(#id28)}
    .fil23 {fill:url(#id29);fill-rule:nonzero}
   ]]>
  </style>
  <linearGradient id="id0" gradientUnits="userSpaceOnUse" x1="11262.33" y1="14892.17" x2="11968.03" y2="15388.79">
   <stop offset="0" style="stop-opacity:1; stop-color:#8B5C4A"/>
   <stop offset="0.470588" style="stop-opacity:1; stop-color:#F2865F"/>
   <stop offset="1" style="stop-opacity:1; stop-color:#F1A488"/>
  </linearGradient>
  <linearGradient id="id1" gradientUnits="userSpaceOnUse" x1="15557.88" y1="20530.51" x2="19248.41" y2="21312.47">
   <stop offset="0" style="stop-opacity:1; stop-color:#C76C48"/>
   <stop offset="0.470588" style="stop-opacity:1; stop-color:#F2865F"/>
   <stop offset="1" style="stop-opacity:1; stop-color:#F1A488"/>
  </linearGradient>
  <linearGradient id="id2" gradientUnits="userSpaceOnUse" xlink:href="#id0" x1="10058.55" y1="13554.56" x2="10739.69" y2="14049.27">
  </linearGradient>
  <linearGradient id="id3" gradientUnits="userSpaceOnUse" xlink:href="#id0" x1="15398.62" y1="13642.03" x2="18598.28" y2="15941.81">
  </linearGradient>
  <linearGradient id="id4" gradientUnits="userSpaceOnUse" xlink:href="#id0" x1="11908.98" y1="15634.78" x2="12596.92" y2="16135.94">
  </linearGradient>
  <linearGradient id="id5" gradientUnits="userSpaceOnUse" xlink:href="#id0" x1="13786.82" y1="13082.34" x2="11961.63" y2="16517.01">
  </linearGradient>
  <linearGradient id="id6" gradientUnits="userSpaceOnUse" xlink:href="#id0" x1="10876.78" y1="18538.14" x2="11347.95" y2="19739.95">
  </linearGradient>
  <linearGradient id="id7" gradientUnits="userSpaceOnUse" x1="17716.86" y1="15134.56" x2="18409.78" y2="15648.67">
   <stop offset="0" style="stop-opacity:1; stop-color:#F2865F"/>
   <stop offset="0.470588" style="stop-opacity:1; stop-color:#F2865F"/>
   <stop offset="1" style="stop-opacity:1; stop-color:#F1A488"/>
  </linearGradient>
  <linearGradient id="id8" gradientUnits="userSpaceOnUse" xlink:href="#id7" x1="17397.26" y1="15530.36" x2="18090.77" y2="16035.39">
  </linearGradient>
  <linearGradient id="id9" gradientUnits="userSpaceOnUse" xlink:href="#id7" x1="13919.63" y1="12256.13" x2="12769.84" y2="11802.36">
  </linearGradient>
  <linearGradient id="id10" gradientUnits="userSpaceOnUse" xlink:href="#id0" x1="11057.46" y1="19125.2" x2="11393.44" y2="20327.01">
  </linearGradient>
  <linearGradient id="id11" gradientUnits="userSpaceOnUse" xlink:href="#id7" x1="18025.82" y1="14801.23" x2="18728.46" y2="15283.48">
  </linearGradient>
  <linearGradient id="id12" gradientUnits="userSpaceOnUse" xlink:href="#id0" x1="10951.97" y1="14596.47" x2="11655.5" y2="15078.51">
  </linearGradient>
  <linearGradient id="id13" gradientUnits="userSpaceOnUse" xlink:href="#id7" x1="18940.5" y1="13788.56" x2="19654.36" y2="14274.75">
  </linearGradient>
  <linearGradient id="id14" gradientUnits="userSpaceOnUse" xlink:href="#id7" x1="18616.12" y1="14122.03" x2="19328.24" y2="14602.12">
  </linearGradient>
  <linearGradient id="id15" gradientUnits="userSpaceOnUse" xlink:href="#id0" x1="18389.88" y1="19125.2" x2="18725.86" y2="20327.01">
  </linearGradient>
  <linearGradient id="id16" gradientUnits="userSpaceOnUse" xlink:href="#id0" x1="10348.64" y1="13891.37" x2="11061.71" y2="14383.14">
  </linearGradient>
  <linearGradient id="id17" gradientUnits="userSpaceOnUse" xlink:href="#id7" x1="18342.9" y1="14482.79" x2="19059.12" y2="14976.05">
  </linearGradient>
  <linearGradient id="id18" gradientUnits="userSpaceOnUse" xlink:href="#id0" x1="18435.36" y1="18538.14" x2="18906.54" y2="19739.95">
  </linearGradient>
  <linearGradient id="id19" gradientUnits="userSpaceOnUse" xlink:href="#id1" x1="10612.21" y1="20530.51" x2="14302.75" y2="21312.47">
  </linearGradient>
  <linearGradient id="id20" gradientUnits="userSpaceOnUse" xlink:href="#id0" x1="11576.02" y1="15267.73" x2="12281.47" y2="15757.48">
  </linearGradient>
  <linearGradient id="id21" gradientUnits="userSpaceOnUse" xlink:href="#id7" x1="16454.62" y1="12190.19" x2="16169.56" y2="12176.81">
  </linearGradient>
  <linearGradient id="id22" gradientUnits="userSpaceOnUse" xlink:href="#id0" x1="10658.36" y1="14211.26" x2="11380.93" y2="14721.03">
  </linearGradient>
  <linearGradient id="id23" gradientUnits="userSpaceOnUse" x1="15185.92" y1="7577.64" x2="14919.15" y2="9570.29">
   <stop offset="0" style="stop-opacity:1; stop-color:#F2865F"/>
   <stop offset="0.529412" style="stop-opacity:1; stop-color:#F2865F"/>
   <stop offset="1" style="stop-opacity:1; stop-color:#F1A488"/>
  </linearGradient>
  <linearGradient id="id24" gradientUnits="userSpaceOnUse" xlink:href="#id0" x1="9530.75" y1="8842.93" x2="11875.8" y2="11765.09">
  </linearGradient>
  <linearGradient id="id25" gradientUnits="userSpaceOnUse" x1="15710.09" y1="14943.42" x2="14706.28" y2="12705.07">
   <stop offset="0" style="stop-opacity:1; stop-color:#A1583B"/>
   <stop offset="0.529412" style="stop-opacity:1; stop-color:#F2865F"/>
   <stop offset="1" style="stop-opacity:1; stop-color:#F2865F"/>
  </linearGradient>
  <linearGradient id="id26" gradientUnits="userSpaceOnUse" x1="15349.6" y1="11820.43" x2="14705.34" y2="10044.6">
   <stop offset="0" style="stop-opacity:1; stop-color:#CC6C46"/>
   <stop offset="0.368627" style="stop-opacity:1; stop-color:#F2865F"/>
   <stop offset="1" style="stop-opacity:1; stop-color:#F1A488"/>
  </linearGradient>
  <linearGradient id="id27" gradientUnits="userSpaceOnUse" xlink:href="#id0" x1="20251.51" y1="8938.16" x2="17776.12" y2="11556.41">
  </linearGradient>
  <linearGradient id="id28" gradientUnits="userSpaceOnUse" x1="14901.75" y1="13628" x2="15600.76" y2="14765.8">
   <stop offset="0" style="stop-opacity:1; stop-color:#8B5C4A"/>
   <stop offset="0.701961" style="stop-opacity:1; stop-color:#F2865F"/>
   <stop offset="1" style="stop-opacity:1; stop-color:#F1A488"/>
  </linearGradient>
  <linearGradient id="id29" gradientUnits="objectBoundingBox" xlink:href="#id1" x1="49.745%" y1="0%" x2="50.255%" y2="100.579%">
  </linearGradient>
 </defs>
 <g id="Camada_x0020_1">
  <metadata id="CorelCorpID_0Corel-Layer"/>
  <g id="_2801022603424">
   <path class="fil0" d="M16259.25 20916.81c-19.26,-224.73 -0.71,-360 42.74,-576.06 54.94,-273.22 -7.3,-317.35 255.43,-180.52 623,324.45 1798.52,1040.34 2116.48,1613.76 633.09,1141.74 -2245.59,1116.35 -2414.65,-857.18zm2615.6 1914.44c536.43,-355.56 485.81,-957.78 134.73,-1426.88 -388.23,-518.72 -1285.21,-1021.34 -1900.65,-1259.23 -231.85,-89.62 -685.02,-120.22 -692.63,-349.73 -11.25,-339.11 100.44,-537.82 -175.79,-843.61 -172.92,-191.41 -575.37,-312.42 -710.01,-31.65 892.62,18.78 552.43,750.01 370.69,1285 -171.53,504.95 -105.49,1256.03 165.33,1721.64 534.45,918.84 1856.66,1535.25 2808.33,904.46z"/>
   <path class="fil1" d="M18966.42 12849.22c-805.12,448.36 -1497.31,1166.31 -2169.04,1791.98 -146.16,136.13 -2089.58,2030.57 -1741.55,2092.58 238.13,42.42 1924.97,-1521.41 2178.9,-1771.68 332.27,-327.47 666.26,-654.22 977.01,-1002.5 170.67,-191.28 887.41,-878.4 754.68,-1110.38z"/>
   <path class="fil2" d="M10867.08 12872.91c183.42,663.34 3802.52,4116.23 4007.04,3837.56 189.58,-258.3 -3395.68,-3819.91 -4007.04,-3837.56z"/>
   <path class="fil3" d="M12231.93 7383c-31.93,315.16 572.98,1854.52 864.54,1866.2 -99.27,-351.08 -686.22,-1084.73 -655.31,-1509.83 611.14,280.7 892.07,388.8 1617.21,327.56 -13.94,276.51 -83.49,349.9 50.05,595.76 65.65,120.87 264.75,307.85 401.19,319.13 -28.8,-117 -310.97,-191.87 -356.93,-547.49 -45.96,-355.62 313.65,-590.02 295.38,-653.89l-393.95 103.16c87.66,-106.35 313.12,-260.9 428.12,-410.3 51.73,-67.19 357.21,-472.76 369.71,-476.47l190.21 434.3c-34.32,225.33 -599.8,506.69 -625.34,556.51 48.96,37.01 328.72,-103.43 386.62,-140.05 85.73,-54.22 301.82,-266.06 313.75,-271.97 84.23,39.35 129.95,234.77 433.44,322.61 303.5,87.84 439.87,69.19 665.97,127.25 -12.06,24.86 -105.6,99.08 -203.31,187.16 -97.71,88.08 -491.69,709.48 -381.31,888.17 103.32,-63.1 330.07,-1078.31 946.6,-1100.7 240.09,-8.71 344.34,-43.23 557.18,-66.84 -38.26,196.76 -750.61,1144.65 -621.83,1440.5 126.35,-46.82 680.65,-1319.08 1079.82,-1735.48 -292.62,-51.32 -1151.75,359.35 -1854.23,168.37 -702.48,-190.98 -490.22,-526.15 -555.44,-541.81 -5.95,-1.42 -133.25,208.54 -201.15,-185.85 -11.73,-68.14 -50.4,-452.43 -56.88,-467.54 -73.65,39.44 -419.03,839 -1008.43,1264.9 -510,368.53 -1617.2,-491.04 -1685.68,-493.36z"/>
   <path class="fil4" d="M18286.33 9618.09c-105.6,54.29 -96.05,259.87 -282.33,219.01 -326.7,-71.67 -341.94,-649.66 131.49,-1043.24 479.15,-398.34 1266.53,-107.41 1260.62,561.77 -1.61,182.24 -178.72,610.41 -246.04,812.22 -120.34,360.82 -43,564.19 49.25,904.51 107.69,397.33 763.97,1048.99 1182.56,953.83 10.67,-17.34 -430.75,-149.6 -721.58,-445.27 -225.35,-229.11 -327.31,-478.84 -377.21,-788.8 -125.28,-778.4 520.47,-1287.77 161.18,-1892.28 -339.99,-572.03 -1088.72,-570.26 -1525.22,-93.78 -191.54,209.08 -348.94,582.98 -235.08,859.74 164.09,398.85 639.04,276.15 602.36,-47.71zm1567.47 6082.28c32.78,268.98 618.08,318.55 838.33,217.43 331.13,-152.03 410.88,-255.92 534.36,-611.99 287.69,-829.61 -555.69,-1492.36 -562.93,-1603.52 167.69,-81.74 401.93,49.11 712.72,-259.42 179.26,-177.97 275.98,-486.83 219.06,-733.8 -188.46,-817.76 -1113.42,-570.09 -1110.11,-315.73 835.06,-407.91 1255.72,433.46 786.24,929.58 -179.09,189.25 -625.81,362.58 -853.09,184.67 -220.37,-172.52 -436.73,-351.25 -660.8,-518.09 -502.63,-374.28 -765.56,-775.3 -1018.96,-1338.77 -121.92,-271.13 -172.84,-673.9 -206.72,-969.73 -43.52,-380 115.43,-793.06 83.3,-1051.74 -120.51,100.97 -220.37,880.88 -212.81,1083.91 11.87,318.67 124.85,800.18 246.61,1095.64 293.57,712.41 634.42,1001.37 1212.6,1468.4 474.27,383.1 1108.03,801.65 1237.22,1446.61 169.12,844.28 -509.5,1534.96 -1245.02,976.55z"/>
   <path class="fil5" d="M9337.56 12084.02c207.26,46.5 585.37,-177.2 741.7,-318.44 253.48,-229.02 300.26,-339.6 437.25,-640.26 335.84,-737.12 -199.13,-1219.74 -199.67,-1755.38 -0.62,-613.91 740.33,-908.79 1258.58,-522.61 674.08,502.28 309.46,1469.28 -136.53,827.2 -74.68,144.96 141.78,286.3 285.19,281.96 145.3,-4.38 290.08,-128.44 324.05,-263.62 76.86,-305.86 -68.25,-640 -277.93,-860.34 -436.3,-458.46 -1209.56,-423.61 -1510.46,153.74 -345.53,662.98 355.98,1140.88 185.09,1891.69 -64.42,283 -183.9,544.52 -387.52,754.41 -292.95,301.96 -506.15,282.55 -719.75,451.65zm-98.29 346.65c-183.38,-402.22 -1003.02,-281.73 -1140.91,353.43 -47.84,220.36 82.27,562.14 236.65,710.41 357.15,343.05 536.89,150.08 737.27,245.8 -9.04,39.87 -410.36,465.79 -485.77,675.77 -128.41,357.55 -203.52,597.81 -87.8,994.19 238.1,815.49 1343.59,705.6 1404.67,297.12 -725.42,592.84 -1471.19,-50.83 -1308.36,-876.82 234.47,-1189.46 1907.64,-1506.02 2458.67,-2936.85 140.76,-365.52 231.45,-719.91 244.82,-1113.39 8.06,-237.17 -43.6,-968.28 -229.63,-1122.74 -7.92,77.99 85.43,303.52 92.34,433.4 31.43,590.93 55.57,960.11 -167.94,1559.48 -215.21,577.08 -513.32,977.3 -992.88,1366.22 -201.28,163.23 -468.31,334.49 -653.81,505.57 -229.17,211.37 -655.47,93.26 -863.4,-108.21 -214.33,-207.65 -314.29,-616.64 -114.13,-868.42 87.86,-110.53 229.43,-204.29 373.85,-215.09 343.31,-25.66 271.12,64.79 496.36,100.13z"/>
   <path class="fil6" d="M17224.84 19183.22c26,132.15 273.89,306.28 668.05,345.23 394.17,38.95 1020.99,-30.39 1576.17,-408.07 90.34,-61.45 636.36,-347.19 648.01,-369.09 -161.61,-90.78 -895.65,394.79 -1340.68,558.83 -445.04,164.03 -1062.47,67.69 -1218.49,-7.17 -156.02,-74.86 -301.77,-137.15 -333.06,-119.73z"/>
   <path class="fil7" d="M13751.08 12938.8l-80.64 130.41c-99.08,16.17 -148.11,-19.44 -238.94,-0.24 -73.11,15.45 -102.26,66.86 -189.32,73.17 -157.68,11.44 -254.34,-133.71 -242.24,-281.69 15.85,-193.86 264.06,-450.1 329.58,-685.88 116.98,-420.99 -168.8,-423.88 -274.82,-662.19 -86.68,-194.83 89.28,-627.6 -55.11,-703.75 -24.67,61.7 -4.68,180.16 -15.1,262.82 -25.56,202.71 -132.53,324.04 -1.21,544.6 187.46,314.89 427.85,270.72 118.93,766.41 -156.39,250.94 -369.22,580.83 -47.43,818.13 171.2,126.25 298.48,-28.13 464.11,-44.19 332.9,-32.26 315.95,-194.5 232.19,-217.6z"/>
   <path class="fil8" d="M14332.26 14813.89c64.65,-0.46 70.57,-23.83 106.44,-66.34 94.67,-112.19 158.38,-137.82 200.45,-169.68 246.62,-186.81 469.52,-298.45 699.32,-466.35l233.95 -137.22c12.41,-4.83 233.98,-130.27 246.7,-140.12 59.24,-45.84 67.36,-40.47 126.04,-77.04l225.1 -154.09c-74.57,-54.08 -82.56,0.57 -117.96,23.41 -1.3,0.85 -249.38,130.18 -253.92,131.9 -120.64,61.07 -272.69,161.6 -380.7,211 -334.68,153.07 -548.92,375.17 -821.82,532.01 -51.01,29.31 -257.73,260.83 -263.6,312.52zm1036.66 -218.84c105,29.96 82.75,3.29 162.53,-17.12 551.04,-140.97 791.69,-113.87 1251.89,-84.56l1.26 -88.68c-292.37,-34.2 -547.99,-40.9 -767.87,-33.89 -219.87,7.02 -592.69,109.55 -647.81,224.25zm710.25 -300.35l805.35 1.52 0.41 -94.62 -451.85 -40.74c-85.37,3.64 -122.02,26.46 -202.72,30.57 -96.42,4.91 -157.59,-16.79 -151.19,103.27zm-1123.68 359.26c6.83,-1.67 294.53,-234.14 339.06,-265.17 567.74,-395.62 902.63,-410.18 985.29,-450.92 62.33,-30.72 38.15,-26.74 126.49,-43.41 88.34,-16.67 202.43,20.7 209.83,-96.65 -124.62,-71.36 -354.87,30.64 -389.82,40.21 -169.55,27.64 -222.89,-5.53 -380.98,100.41 -158.09,105.94 -384.99,187.98 -614.96,352.05 -67.66,47.52 -301.9,275.08 -274.91,363.48z"/>
   <path class="fil9" d="M17317.02 15382.52c-20.53,106.06 4.98,71.39 67.12,123.92 7.3,6.16 95.46,94.83 107.2,106.94l527.6 538.91c38.52,48.17 118.17,76.8 156.5,13.21 36.04,-59.77 -323.2,-379.78 -382.21,-441.8 -53.17,-55.87 -157.96,-164.14 -212.74,-213.52 -91.36,-82.33 -135.32,-191.01 -263.47,-127.66z"/>
   <path class="fil10" d="M18500.18 15786.69c15.24,-122.46 -39.09,-51.72 -188.77,-238.19 -90.97,-113.32 -373.3,-367.07 -477.11,-474.28 -40.66,-41.99 -8.31,-30.03 -47.8,-64.74 -42.68,-37.51 -127.08,-54.84 -160.72,2.51 -29.25,49.86 313.74,346.68 391.46,436.7l213.69 212.52c77.17,72.23 152.99,197.51 269.25,125.48z"/>
   <path class="fil11" d="M12554.01 15489.64l-418.21 414.28c-67.43,73.22 -148.33,141.55 -212.11,211.97 -34.21,37.76 -97.2,80.38 -100.82,115.56 -7.81,76 77.24,84.53 132.18,51.68 19.26,-11.51 376.64,-376.5 418.33,-420.1 38.52,-40.27 307.29,-292.58 309.93,-324.66 4.89,-59.47 -67.11,-92.79 -129.3,-48.73z"/>
   <path class="fil12" d="M10350.92 14576.27l648.81 -659.69c36.04,-31.18 81.68,-72 110.56,-105.15 51.5,-59.11 18.94,-119.39 -53.07,-112.7 -29.58,2.75 -581.42,545.2 -668.72,637.79 -82.44,87.43 -188.05,141.24 -37.58,239.75z"/>
   <path class="fil13" d="M10577.13 14849.07c103.65,136.21 163.84,1.72 249.29,-73.72l635.75 -643.22c-14.01,-67.35 -30.72,-36.25 -81.77,-107.38 -103.3,122.19 -788.01,763.68 -803.27,824.32z"/>
   <path class="fil14" d="M19132.78 15095.27c-56.55,-101.38 -586.44,-606.28 -744.21,-770.42 -43.82,-45.6 -106.73,-59.45 -119,22.66 -12.46,83.28 338.01,383.66 412.05,454.04 58.73,55.82 170.61,163.51 220.15,221.69 198.18,232.74 163.67,135.7 231.01,72.03z"/>
   <path class="fil15" d="M19380.25 14786.73c60.15,-101.35 -70.23,-170.96 -132.98,-238.91l-629.72 -627.83c-130.29,154.09 -55.92,115.07 58.79,248.75l454.62 447.05c181.28,156.78 146.68,222.84 249.29,170.94z"/>
   <path class="fil16" d="M11576.82 15945.93l621.99 -619.39c74.33,-72.59 197.53,-136.34 144.59,-245.97 -117.16,-21.75 -311,241.49 -483.33,399.85l-331.52 327.04c-63.46,79.35 -3.1,76.26 48.27,138.47z"/>
   <path class="fil17" d="M19674.35 14473.16l50.39 -77.39c-28.61,-97.33 -481.66,-507.07 -612.44,-647.16 -58.37,-62.51 -169.47,-229.13 -238.1,-125.01 -43.98,66.73 281.54,342.93 367.94,435.91 80.98,87.13 340.41,350.25 432.21,413.65z"/>
   <path class="fil18" d="M11997.43 14709.02c-60.75,16.92 -553.13,522.97 -655.37,629.47 -42.88,44.67 -254.51,192.33 -106.52,232.55 74.09,20.14 343.51,-301.86 458.27,-405.34 56.58,-51.03 158.06,-155.24 212.37,-212.51 72.31,-76.26 216.22,-161.09 91.25,-244.17z"/>
   <path class="fil19" d="M10926 15271.66c38.56,-5.91 547.5,-512.75 621.31,-595.15 59.19,-66.09 193.56,-161.85 177.89,-248.88 -77.11,-47.35 -97.56,-20.43 -144.99,37.01l-558.85 552.9c-74.46,67.54 -211.61,158.49 -95.36,254.12z"/>
   <path class="fil20" d="M9978.16 14210.6c126.37,35.17 305.61,-203.05 447.2,-344.25 62.34,-62.16 372.98,-369.09 399.2,-420.25 -73.28,-131.42 -163.93,-0.56 -230.76,64.04 -63.15,61.03 -160.77,157.78 -218.82,222.59 -69.86,77.98 -150.33,145.71 -219.24,223.3 -73.78,83.07 -208.27,142.16 -177.58,254.57z"/>
   <path class="fil21" d="M18797.44 15464.8c18.59,-114.09 -77.16,-182.92 -152.27,-250.81l-534.63 -529.21c-54.3,-58.71 -30.82,-95.24 -138.63,-64.8 -55,124.5 28.53,94.61 134.52,232.22l548.56 548.51c81.83,68.36 24.61,90.68 142.45,64.09z"/>
   <path class="fil22" d="M16171.38 11836.81c53.56,-11.04 195.58,-92.05 208.01,61.13 11.63,143.49 -95.88,434.6 -103.28,523.36 -18.04,216.4 -79.16,168.3 -44.83,237.03 62.8,-10.1 50.21,-30.09 86.16,-100.48 119.7,-234.36 254.81,-930.36 -49.95,-841.38 -114.07,33.31 -94.54,57.05 -96.11,120.34z"/>
   <path class="fil23" d="M8347.61 18246.85l0 -1019.16 120.72 0c105.54,0 200.53,23.42 284.97,70.25 84.43,46.84 155.02,108.85 211.75,186.03 56.73,77.17 99.27,161.61 127.64,253.3 28.36,91.69 42.55,183.05 42.55,274.09 0,135.88 -18.15,252.97 -54.43,351.26 -36.28,98.29 -83.77,177.12 -142.48,236.48 -58.71,59.37 -121.05,102.58 -187.01,129.63 -65.97,27.04 -129.95,40.56 -191.96,40.56 -52.77,0 -104.55,-4.94 -155.35,-14.84 -50.79,-9.89 -103.89,-26.38 -159.3,-49.47 -55.41,-23.09 -115.11,-53.43 -179.1,-91.03 -63.98,-37.6 -135.56,-84.77 -214.71,-141.5l0 152.38c112.14,84.44 229.22,149.41 351.26,194.93 122.04,45.51 241.1,68.27 357.2,68.27 104.23,0 203.17,-20.12 296.84,-60.36 93.67,-40.24 176.13,-98.61 247.37,-175.13 71.24,-76.52 127.31,-169.86 168.21,-280.03 40.9,-110.16 61.35,-231.86 61.35,-365.11 0,-84.44 -10.22,-168.87 -30.67,-253.31 -20.45,-84.43 -52.78,-165.24 -96.97,-242.42 -44.2,-77.18 -101.26,-146.11 -171.18,-206.8 -69.92,-60.69 -151.72,-108.18 -245.39,-142.48 130.61,-81.8 196.57,-198.56 197.89,-350.28 0,-142.48 -44.19,-247.7 -132.59,-315.64 -88.39,-67.94 -209.1,-101.92 -362.14,-101.92 -73.88,0 -144.47,7.59 -211.75,22.76 -67.29,15.17 -135.23,37.93 -203.83,68.28l0 140.5c13.19,-6.6 30.34,-15.83 51.45,-27.7 10.55,-5.28 17.81,-9.24 21.77,-11.88l0 1709.81 197.89 -49.47zm144.47 -1733.56c88.39,0 159.96,26.39 214.71,79.16 54.75,52.77 82.13,125.99 82.13,219.66 0,97.63 -28.04,171.51 -84.11,221.64 -56.07,50.14 -124.34,75.2 -204.82,75.2l-152.38 0 0 -579.83 9.9 -1.98c26.38,-3.95 49.47,-7.25 69.26,-9.89 19.79,-2.64 41.56,-3.96 65.31,-3.96z"/>
   <path id="1" class="fil23" d="M9825.12 17754.09c-48.81,0 -94.99,7.26 -138.53,21.77 -43.53,14.51 -81.46,34.3 -113.79,59.37 -32.32,25.07 -57.72,53.76 -76.19,86.08 -18.47,32.33 -27.7,65.64 -27.7,99.94 0,32.98 8.9,66.3 26.71,99.94 17.82,33.64 43.21,63.65 76.19,90.04 32.99,26.39 70.92,47.16 113.79,62.34 42.88,15.17 88.73,22.75 137.54,22.75 26.39,0 53.1,-2.96 80.15,-8.9 27.04,-5.94 53.1,-14.18 78.17,-24.74l0 21.77 197.89 0 0 -581.81c-1.32,-67.28 -31.99,-120.72 -92.02,-160.3 -60.03,-39.57 -146.11,-59.36 -258.25,-59.36 -51.45,0 -102.25,9.56 -152.38,28.69 -50.13,19.13 -94.33,43.21 -132.59,72.23l0 174.15c36.94,-34.3 68.27,-61.68 94,-82.13 25.73,-20.45 48.81,-35.95 69.26,-46.5 20.45,-10.56 39.25,-17.81 56.4,-21.77 17.15,-3.96 36.94,-5.94 59.37,-5.94 54.09,0 92.68,8.25 115.77,24.74 23.09,16.49 37.27,45.19 42.55,86.08l0 69.27c-50.14,-18.47 -102.25,-27.71 -156.34,-27.71zm0 118.74c80.48,0 132.59,36.28 156.34,108.84l0 79.16c-11.88,35.62 -32,63.99 -60.36,85.09 -28.37,21.11 -60.36,31.67 -95.98,31.67 -43.54,0 -81.8,-14.84 -114.78,-44.53 -32.98,-29.68 -49.47,-66.95 -49.47,-111.81 0,-44.86 15.83,-80.81 47.49,-107.85 31.67,-27.05 70.58,-40.57 116.76,-40.57z"/>
   <path id="2" class="fil23" d="M10985.99 17560.16c-32.98,-22.43 -74.87,-40.9 -125.66,-55.42 -50.79,-14.51 -103.24,-21.76 -157.33,-21.76 -31.66,0 -63.98,4.28 -96.97,12.86 -32.98,8.57 -63.98,19.46 -93.01,32.65l0 -33.64 -197.89 0 0 789.6 197.89 0 0 -613.47c31.67,-26.39 61.02,-44.53 88.07,-54.42 27.04,-9.9 59.04,-14.85 95.98,-14.85 38.26,0 79.48,7.92 123.68,23.75 44.2,15.83 99.28,44.2 165.24,85.1l0 -150.4z"/>
   <path id="3" class="fil23" d="M11121.77 18280.49l197.89 0 0 -57.39c34.31,21.11 71.91,38.59 112.8,52.45 40.9,13.85 82.46,20.77 124.68,20.77 60.69,0 118.08,-11.54 172.17,-34.63 54.09,-23.08 101.25,-53.76 141.49,-92.02 40.24,-38.26 71.57,-82.12 94,-131.6 22.43,-49.47 33.64,-99.28 33.64,-149.41 0,-50.13 -11.21,-99.61 -33.64,-148.42 -22.43,-48.81 -53.76,-92.68 -94,-131.6 -40.24,-38.92 -87.4,-69.59 -141.49,-92.02 -54.09,-22.43 -110.82,-33.64 -170.19,-33.64 -43.54,0 -85.76,6.59 -126.66,19.79 -40.89,13.19 -78.49,31 -112.8,53.43l0 -1165.6 -197.89 49.47 0 1840.42zm678.78 -391.83c0,79.16 -24.41,146.11 -73.22,200.86 -48.82,54.76 -105.55,82.13 -170.19,82.13 -59.37,0 -111.81,-24.08 -157.33,-72.23 -45.51,-48.16 -72.23,-108.51 -80.15,-181.07l0 -59.37c7.92,-72.56 34.97,-133.58 81.14,-183.06 46.18,-49.47 98.29,-74.21 156.34,-74.21 64.64,1.32 121.37,29.69 170.19,85.1 48.81,55.41 73.22,122.69 73.22,201.85z"/>
   <path id="4" class="fil23" d="M12571.57 17601.71c50.13,0 96.64,19.13 139.51,57.39 42.88,38.26 74.21,88.4 94,150.4l-463.07 0c19.79,-62 50.46,-111.81 92.02,-149.41 41.56,-37.6 87.4,-57.06 137.54,-58.38zm439.32 326.53c1.32,-10.55 1.98,-23.75 1.98,-39.58 0,-50.13 -11.21,-99.61 -33.64,-148.42 -22.43,-48.81 -53.76,-92.68 -94,-131.6 -40.24,-38.92 -87.4,-69.59 -141.49,-92.02 -54.1,-22.43 -111.49,-33.64 -172.17,-33.64 -60.69,0 -117.75,11.21 -171.18,33.64 -53.43,22.43 -100.27,53.1 -140.51,92.02 -40.24,38.92 -71.24,82.46 -93.01,130.61 -21.77,48.15 -32.65,97.96 -32.65,149.41 0,50.13 11.21,99.94 33.64,149.41 22.43,49.48 53.76,93.67 94,132.59 40.24,38.92 87.08,69.59 140.51,92.02 53.43,22.43 110.49,33.64 171.18,33.64 55.41,0 109.17,-11.54 161.28,-34.63 52.11,-23.08 97.3,-51.12 135.56,-84.1l-71.24 -160.3c-54.1,59.37 -97.63,100.93 -130.61,124.68 -32.99,23.74 -64.65,35.62 -94.99,35.62 -56.73,0 -107.86,-23.75 -153.37,-71.24 -45.52,-47.5 -73.55,-106.87 -84.11,-178.11l674.82 0z"/>
   <path id="5" class="fil23" d="M13504.86 17754.09c-48.81,0 -94.99,7.26 -138.53,21.77 -43.53,14.51 -81.46,34.3 -113.79,59.37 -32.32,25.07 -57.72,53.76 -76.19,86.08 -18.47,32.33 -27.7,65.64 -27.7,99.94 0,32.98 8.9,66.3 26.71,99.94 17.82,33.64 43.21,63.65 76.19,90.04 32.99,26.39 70.92,47.16 113.79,62.34 42.88,15.17 88.73,22.75 137.54,22.75 26.39,0 53.1,-2.96 80.15,-8.9 27.04,-5.94 53.1,-14.18 78.17,-24.74l0 21.77 197.89 0 0 -581.81c-1.32,-67.28 -31.99,-120.72 -92.02,-160.3 -60.03,-39.57 -146.11,-59.36 -258.25,-59.36 -51.45,0 -102.25,9.56 -152.38,28.69 -50.13,19.13 -94.33,43.21 -132.59,72.23l0 174.15c36.94,-34.3 68.27,-61.68 94,-82.13 25.73,-20.45 48.81,-35.95 69.26,-46.5 20.45,-10.56 39.25,-17.81 56.4,-21.77 17.15,-3.96 36.94,-5.94 59.37,-5.94 54.09,0 92.68,8.25 115.77,24.74 23.09,16.49 37.27,45.19 42.55,86.08l0 69.27c-50.14,-18.47 -102.25,-27.71 -156.34,-27.71zm0 118.74c80.48,0 132.59,36.28 156.34,108.84l0 79.16c-11.88,35.62 -32,63.99 -60.36,85.09 -28.37,21.11 -60.36,31.67 -95.98,31.67 -43.54,0 -81.8,-14.84 -114.78,-44.53 -32.98,-29.68 -49.47,-66.95 -49.47,-111.81 0,-44.86 15.83,-80.81 47.49,-107.85 31.67,-27.05 70.58,-40.57 116.76,-40.57z"/>
   <path id="6" class="fil23" d="M14665.73 17560.16c-32.98,-22.43 -74.87,-40.9 -125.66,-55.42 -50.79,-14.51 -103.24,-21.76 -157.33,-21.76 -31.66,0 -63.98,4.28 -96.97,12.86 -32.98,8.57 -63.98,19.46 -93.01,32.65l0 -33.64 -197.89 0 0 789.6 197.89 0 0 -613.47c31.67,-26.39 61.02,-44.53 88.07,-54.42 27.04,-9.9 59.04,-14.85 95.98,-14.85 38.26,0 79.48,7.92 123.68,23.75 44.2,15.83 99.28,44.2 165.24,85.1l0 -150.4z"/>
   <path id="7" class="fil23" d="M14801.51 18284.45l197.89 0 0 -789.6 -197.89 0 0 789.6zm98.95 -1023.12c-26.39,0 -49.15,6.6 -68.28,19.79 -19.13,13.2 -28.69,25.73 -28.69,37.6 0,11.88 9.56,24.41 28.69,37.6 19.13,13.2 41.89,19.79 68.28,19.79 26.38,0 49.47,-6.59 69.26,-19.79 19.79,-13.19 29.68,-25.72 29.68,-37.6 0,-11.87 -9.89,-24.4 -29.68,-37.6 -19.79,-13.19 -42.88,-19.79 -69.26,-19.79z"/>
   <path id="8" class="fil23" d="M15491.39 17754.09c-48.81,0 -94.99,7.26 -138.53,21.77 -43.53,14.51 -81.46,34.3 -113.79,59.37 -32.32,25.07 -57.72,53.76 -76.19,86.08 -18.47,32.33 -27.7,65.64 -27.7,99.94 0,32.98 8.9,66.3 26.71,99.94 17.82,33.64 43.21,63.65 76.19,90.04 32.99,26.39 70.92,47.16 113.79,62.34 42.88,15.17 88.73,22.75 137.54,22.75 26.39,0 53.1,-2.96 80.15,-8.9 27.04,-5.94 53.1,-14.18 78.17,-24.74l0 21.77 197.89 0 0 -581.81c-1.32,-67.28 -31.99,-120.72 -92.02,-160.3 -60.03,-39.57 -146.11,-59.36 -258.25,-59.36 -51.45,0 -102.25,9.56 -152.38,28.69 -50.13,19.13 -94.33,43.21 -132.59,72.23l0 174.15c36.94,-34.3 68.27,-61.68 94,-82.13 25.73,-20.45 48.81,-35.95 69.26,-46.5 20.45,-10.56 39.25,-17.81 56.4,-21.77 17.15,-3.96 36.94,-5.94 59.37,-5.94 54.09,0 92.68,8.25 115.77,24.74 23.09,16.49 37.27,45.19 42.55,86.08l0 69.27c-50.14,-18.47 -102.25,-27.71 -156.34,-27.71zm0 118.74c80.48,0 132.59,36.28 156.34,108.84l0 79.16c-11.88,35.62 -32,63.99 -60.36,85.09 -28.37,21.11 -60.36,31.67 -95.98,31.67 -43.54,0 -81.8,-14.84 -114.78,-44.53 -32.98,-29.68 -49.47,-66.95 -49.47,-111.81 0,-44.86 15.83,-80.81 47.49,-107.85 31.67,-27.05 70.58,-40.57 116.76,-40.57z"/>
   <path id="9" class="fil23" d="M17997.95 18676.28l-348.3 -1116.12c48.82,-17.16 94.33,-39.91 136.55,-68.28 42.22,-28.36 79.49,-64.64 111.81,-108.84 32.33,-44.2 57.72,-97.3 76.19,-159.31 18.47,-62 27.71,-133.25 27.71,-213.72 0,-113.46 -22.76,-210.43 -68.28,-290.91 -45.51,-80.48 -104.55,-144.46 -177.11,-191.96 -72.56,-47.49 -150.07,-81.46 -232.53,-101.91 -82.46,-20.45 -162.6,-30.68 -240.44,-30.68 -73.88,0 -144.46,7.59 -211.75,22.76 -67.28,15.17 -135.23,37.93 -203.83,68.28l0 140.5c13.19,-6.6 30.34,-15.83 51.45,-27.7 10.56,-5.28 17.81,-9.24 21.77,-11.88l0 2305.48 197.9 -49.48 0 -1228.92 176.12 0c52.77,0 100.27,-2.64 142.49,-7.92l350.27 1108.21 189.98 -37.6zm-714.4 -2162.99c51.45,0 106.86,8.58 166.23,25.73 59.37,17.15 116.1,44.85 170.19,83.11 54.09,38.26 98.29,89.72 132.59,154.36 34.3,64.65 51.45,142.49 51.45,233.52 0,110.82 -16.16,199.87 -48.48,267.16 -32.32,67.28 -73.55,116.09 -123.69,146.44 -50.13,30.34 -100.59,49.8 -151.39,58.38 -50.79,8.57 -105.87,12.86 -165.24,12.86l-176.12 0 0 -965.73 9.89 -1.98c26.39,-3.95 49.47,-7.25 69.26,-9.89 19.79,-2.64 41.56,-3.96 65.31,-3.96z"/>
   <path id="10" class="fil23" d="M18856.05 17494.85l-197.9 0 0 532.34c0,44.85 -14.84,81.13 -44.52,108.84 -29.69,27.71 -66.3,41.56 -109.84,41.56 -44.85,0 -84.1,-14.84 -117.74,-44.53 -33.64,-29.68 -50.47,-66.95 -50.47,-111.81l0 -526.4 -197.89 0 0 526.4c0,32.98 9.89,65.64 29.68,97.96 19.79,32.32 47.17,62.01 82.13,89.05 34.96,27.05 74.54,48.49 118.74,64.32 44.19,15.83 90.7,23.74 139.51,23.74 48.82,0 94.66,-7.58 137.54,-22.75 42.88,-15.18 80.15,-35.62 111.81,-61.35 31.66,-25.73 56.07,-54.75 73.22,-87.07 17.15,-32.33 25.73,-65.64 25.73,-99.94l0 -530.36z"/>
   <path id="11" class="fil23" d="M19189.72 16624.11c5.28,-39.58 18.8,-65.96 40.57,-79.16 21.77,-13.19 61.02,-19.79 117.75,-19.79 25.07,0 46.18,1.32 63.33,3.96 17.15,2.64 35.62,8.58 55.41,17.81 19.79,9.24 42.54,23.42 68.27,42.55 25.73,19.13 56.4,45.85 92.02,80.15l0 -174.15c-35.62,-26.39 -79.16,-47.82 -130.61,-64.32 -51.45,-16.49 -102.9,-24.73 -154.36,-24.73 -110.82,0 -196.24,18.14 -256.27,54.42 -60.03,36.28 -91.36,87.4 -94,153.37l0 1670.23 197.89 0 0 -670.86 292.89 0 0 -118.74 -292.89 0 0 -870.74z"/>
   <path id="12" class="fil23" d="M19762.85 18284.45l197.89 0 0 -789.6 -197.89 0 0 789.6zm98.95 -1023.12c-26.39,0 -49.15,6.6 -68.28,19.79 -19.13,13.2 -28.69,25.73 -28.69,37.6 0,11.88 9.56,24.41 28.69,37.6 19.13,13.2 41.89,19.79 68.28,19.79 26.38,0 49.47,-6.59 69.26,-19.79 19.79,-13.19 29.68,-25.72 29.68,-37.6 0,-11.87 -9.89,-24.4 -29.68,-37.6 -19.79,-13.19 -42.88,-19.79 -69.26,-19.79z"/>
   <path id="13" class="fil23" d="M20636.77 18284.45l197.9 0 0 -581.81c-1.32,-67.28 -32,-120.72 -92.02,-160.3 -60.03,-39.57 -146.12,-59.36 -258.26,-59.36 -31.66,0 -63.98,4.28 -96.97,12.86 -32.98,8.57 -63.98,19.46 -93.01,32.65l0 -33.64 -197.89 0 0 789.6 197.89 0 0 -613.47c30.35,-25.07 59.7,-42.88 88.07,-53.44 28.36,-10.55 61.01,-15.83 97.96,-15.83 52.77,0 90.7,8.25 113.78,24.74 23.09,16.49 37.28,45.19 42.55,86.08l0 571.92z"/>
   <path id="14" class="fil23" d="M21409.78 17482.98c-60.69,0 -117.75,11.21 -171.18,33.64 -53.43,22.43 -100.27,53.1 -140.51,92.02 -40.24,38.92 -71.57,82.79 -94,131.6 -22.43,48.81 -33.64,98.29 -33.64,148.42 0,50.13 11.21,99.94 33.64,149.41 22.43,49.48 53.76,93.67 94,132.59 40.24,38.92 87.08,69.59 140.51,92.02 53.43,22.43 110.49,33.64 171.18,33.64 60.68,0 117.74,-11.21 171.18,-33.64 53.43,-22.43 100.26,-53.1 140.5,-92.02 40.24,-38.92 71.57,-83.11 94,-132.59 22.43,-49.47 33.64,-99.28 33.64,-149.41 0,-50.13 -11.21,-99.61 -33.64,-148.42 -22.43,-48.81 -53.43,-92.68 -93.01,-131.6 -39.58,-38.92 -86.41,-69.59 -140.51,-92.02 -54.09,-22.43 -111.48,-33.64 -172.16,-33.64zm0 118.73c63.32,0 119.39,27.71 168.21,83.12 22.42,26.39 40.24,57.06 53.43,92.02 13.19,34.96 19.79,72.23 19.79,111.81 0,39.58 -6.6,76.85 -19.79,111.81 -13.19,34.96 -31.01,66.3 -53.43,94 -48.82,55.41 -104.89,83.12 -168.21,83.12 -63.33,0 -119.4,-27.71 -168.21,-83.12 -22.43,-27.7 -40.24,-59.04 -53.44,-94 -13.19,-34.96 -19.79,-72.23 -19.79,-111.81 0,-39.58 6.6,-76.85 19.79,-111.81 13.2,-34.96 31.01,-65.63 53.44,-92.02 48.81,-55.41 104.88,-83.12 168.21,-83.12z"/>
   <path class="fil24" d="M14041.05 9729.36c1.52,48.41 -13.41,17.53 19.02,75.69 31.1,55.75 -15.9,12.38 58.82,77.96 10.15,8.92 23.02,20.95 32.61,28.89"/>
   <path class="fil25" d="M15989.31 11924.36c57.74,-74.83 17.87,-547.12 465.3,-315.86 200.76,103.76 272.07,441.24 209.23,656.31 -79.68,272.67 -123.93,403.06 -275.91,635.45 -300.9,460.12 -390.41,-159.49 -408.16,-166.87l-13.57 228.92 -47.98 15.27 -254.59 -738.58c-210.01,589.33 672.06,743.42 -195.54,1225.11 -195.86,108.74 -990.45,703.81 -1131.39,730.07 51.02,-259.92 582.88,-538.29 794.62,-662.14 135.45,-79.22 326.24,-197.6 333.11,-399.97 2.01,-59.2 -11.24,-702.58 -12.05,-705.47 -225.12,49.78 9.5,640.15 -126.89,810.93 -165.44,207.17 -727.41,316.3 -1062.5,898.15 -152.76,265.25 -272.06,406.84 -629.08,359.85l-190.99 -792.43c30.35,-4.46 60.56,-11.37 91.21,-32.76 55.48,-38.7 86.99,-58.74 140.27,-87.28 5.42,-2.76 -10.01,-4.64 -18.9,-11.68 -60.2,12.48 -140.29,43.83 -217.2,22.49 -6.6,-1.69 -14.59,-4.13 -23.43,-7.21l-25.1 -104.12c-0.19,-3.06 -0.4,-6.05 -0.62,-9.02 62.77,-11.36 147.87,-22.7 204.29,-7.63 76.19,20.18 183.35,58.1 282.24,20.14 1.72,1.33 134.21,-57.93 37.58,-184.82 -45.53,-54.69 -150.38,-77.12 -154.5,29.46 8.1,9.69 80.9,-26.81 94.97,16.13 0.26,13.02 -6.77,47.91 -9.55,59.74 -0.86,3.69 -19.73,3.86 -31.46,4.57 -13.08,13.67 -36.7,3.45 -57.94,-23.89 -18.51,-14.73 -25.47,-37.77 -32.05,-44.99 -6.58,-7.22 -223.17,-116.09 -380.97,-45.3 -1.27,6.61 -2.84,12.62 -4.6,18.23 -3.02,6.21 -6.37,12.45 -9.15,18.65 -8.29,14.91 -10.61,26.55 -15.46,42.47 -1.03,2.91 -1.91,6.08 -2.67,9.4 -3.81,14.57 -6.28,32 -6.11,54.97 -3.33,36.59 1.58,50.45 10.76,94.25 5.82,52.77 52.44,176.28 54.02,180.45l0.01 0.02 0.03 0.09c8.97,26.25 17.29,51.04 23.74,73.71 60.64,213.37 32.11,371.9 60.34,570.3 79.89,561.59 653.81,80.64 784.41,113.95l-102.34 401.22c207.15,52.84 132.6,-454.06 132.6,-454.11 13.89,-57.7 1498.62,-990.83 1600.72,-1115.69 99.22,-121.32 93.44,-236.69 116.89,-269.66l302.47 106.17 84.72 547.28 44.85 -6.94c77,-126.3 -176.61,-366.2 118.48,-804.66 269.09,-399.8 464.49,-1192.69 -126.97,-1392.39 -383.08,-129.34 -552.51,332.39 -419.19,439.72z"/>
   <path class="fil26" d="M17526.7 19770.28c18.54,132.15 195.3,306.28 476.37,345.23 281.06,38.95 728.02,-30.39 1123.9,-408.07 64.42,-61.45 453.77,-347.19 462.07,-369.09 -115.24,-90.78 -638.65,394.79 -955.99,558.83 -317.34,164.03 -757.6,67.69 -868.86,-7.17 -111.25,-74.86 -215.18,-137.15 -237.49,-119.73z"/>
   <path class="fil27" d="M12558.48 19183.22c-26,132.15 -273.9,306.28 -668.06,345.23 -394.16,38.95 -1020.98,-30.39 -1576.16,-408.07 -90.34,-61.45 -636.37,-347.19 -648.01,-369.09 161.61,-90.78 895.64,394.79 1340.68,558.83 445.04,164.03 1062.47,67.69 1218.49,-7.17 156.02,-74.86 301.77,-137.15 333.06,-119.73z"/>
   <path class="fil28" d="M12256.62 19770.28c-18.54,132.15 -195.31,306.28 -476.37,345.23 -281.06,38.95 -728.03,-30.39 -1123.9,-408.07 -64.42,-61.45 -453.77,-347.19 -462.08,-369.09 115.24,-90.78 638.66,394.79 956,558.83 317.33,164.03 757.6,67.69 868.85,-7.17 111.26,-74.86 215.19,-137.15 237.5,-119.73z"/>
   <path class="fil29" d="M13601.38 20916.81c19.26,-224.73 0.7,-360 -42.74,-576.06 -54.94,-273.22 7.3,-317.35 -255.43,-180.52 -623,324.45 -1798.52,1040.34 -2116.48,1613.76 -633.1,1141.74 2245.59,1116.35 2414.65,-857.18zm-2615.6 1914.44c-536.43,-355.56 -485.81,-957.78 -134.73,-1426.88 388.23,-518.72 1285.21,-1021.34 1900.65,-1259.23 231.85,-89.62 685.02,-120.22 692.63,-349.73 11.25,-339.11 -100.44,-537.82 175.79,-843.61 172.92,-191.41 575.37,-312.42 710,-31.65 -892.61,18.78 -552.42,750.01 -370.68,1285 171.53,504.95 105.49,1256.03 -165.33,1721.64 -534.45,918.84 -1856.66,1535.25 -2808.33,904.46z"/>
   <path class="fil30" d="M16751.98 11632.37c-76.31,-96.79 -124.42,-121.78 -256.49,-133.95 -44.65,-25.89 -66.59,-43.14 -83.82,-94l-49.32 -153.87c-30.31,17.92 -64.56,93.65 -128.61,80.2 -126.4,-26.56 -20.82,-13.72 -103.99,-116.68 -294.77,5.41 -130.63,-6.9 -362.88,-49.03l-69.5 -14.8c-0.17,-0.03 -55.55,-13.01 -66.12,-16.54 -202.41,-67.63 -53.63,-33.17 -231.47,-40.86l-388.53 -189.54c-0.09,-80.15 6.96,-143.08 -118.8,-223.8l9.25 -24.65 -66.35 -230.75 12.85 -72.1c173.16,-229.73 536.74,-287.61 761.95,-358.61l121.4 -70.41c-79.93,-30.41 77.43,-22.73 -99.36,-24.31 -230.7,-2.08 -708.11,234.38 -997.95,253.53 -221.24,14.62 -327.85,115.34 -515.38,172.46 -167.73,51.09 -459.87,82.35 -607.79,148.59 -93.61,-52.72 -385.8,98.67 -510.62,134.69 -47.08,41.8 -109.24,46.75 -165.02,52 -297.97,-268.34 -328.1,-462.61 2.42,-779.96l-53.78 -134.87c441.96,-297.61 1468.98,-429.85 2046.54,-397.97l637.41 49.47 166.82 74.47c265.14,102.83 -15.03,-60.02 492.38,209.78 273.9,145.65 215.3,261.89 408.05,346.08 254.02,110.95 514.51,530.29 513.29,832.62 -0.7,172.5 -1.93,248.28 -37.4,391.06 -21.37,85.99 -24.16,100.18 -63.52,166.5 -47.17,79.49 -68.46,80.15 -121.54,158.43 -21.41,76.17 -61.72,73.83 -74.12,56.82zm-3746.54 -1271.34c6.64,-8.01 -10.06,-45.39 -14.62,-56.11 -12.81,-30.11 -19.79,-60.73 -28.82,-91.78 -5.84,-20.06 -1.5,-59.65 -15.03,-88.22 -16.47,-34.78 -0.27,-80.01 -51.16,-105.04 -50.9,-25.03 -64.34,-58.27 -64.34,37.73 0,96 23.34,206.4 92.89,287.93 45.78,53.66 23.1,18.01 78.44,18.01 4.84,0 4.65,-4.95 2.64,-2.52zm32.54 -164.46c2.3,0.7 27.42,-0.13 32.38,-6.49 9.34,-12.01 30.52,23.68 20.31,-64.12 -2.14,-18.37 -36.64,-86.72 -46.43,-100.22 -0.24,-0.33 -23.34,-60.97 -27.27,-69.59 -8.69,-19.09 -14.58,-30.47 -25.82,-47.29 -14.37,-21.48 -7.21,-13.85 -33.66,-19.28 -11.39,-2.34 -33.69,19.52 -33.69,25.2 0,35.27 20.87,60.74 29.01,96.99 5.19,23.09 19.58,54.98 25.3,81.18 4.41,20.22 19.5,67.96 34.79,83.74 15.62,16.13 3.36,13.2 25.08,19.88zm193.11 -88.31c10.08,2.14 -4.25,-49.67 -6.64,-63.01 -4.27,-23.75 -15.62,-85.71 -28.85,-102.04 -15.93,-19.68 -14.26,-21.32 -36.76,-36.54 -10.92,-7.38 -29.76,-20.97 -33.14,-34.12 -1.65,-6.4 -12.41,-32.68 -20.48,-34.03 -7.69,-1.29 -44.01,-7.78 -48.82,-0.93 -14.55,20.64 9.66,59.96 18.31,78.27 7.95,16.83 8.69,30.31 21.37,48.27 10.56,14.94 27.42,53.53 39.13,63.39 5.48,4.6 6.7,12.65 14.08,19.75 23.23,22.39 20.77,24.72 51.57,44.16 2.25,1.42 26.18,15.97 28.23,16.41l2 0.42zm145.59 -62.18c-10.5,-17.51 23.39,-66.62 -6.1,-90.19 -39.94,-31.92 -37.03,-38.68 -64.51,-81.85 -24.15,-37.94 -31.02,-50.97 -74.52,-67.04 -25.09,-9.27 -54.33,-37.38 -27.84,23.91 10.46,24.18 24.25,47.75 39.04,69.72 28.21,41.89 38.25,52.34 56.11,100.33 7.1,19.09 26.48,40.45 47.8,41.06 4.88,0.13 30.67,5.15 30.02,4.06zm67.72 -232.36c-0.18,18.04 -30.78,4.77 -16.97,39.03 5.66,14.05 14.57,33.25 35.41,28.69 7.13,-1.56 14.04,-11.5 16.6,-18.57 9.34,-25.73 -12.9,-31.89 -30.24,-45.99 -1.11,-0.9 -4.79,-4.74 -4.8,-3.16zm212.9 68.06c12.76,-29.17 11.85,-70.03 1.76,-100.54 -7.09,-21.42 -15.61,-12.65 -37.09,-9.38 -27.81,4.23 -25.69,-3 -43.94,13.93 -21.9,20.29 36.53,72.83 50.61,77.9 6.65,2.39 27.94,19.75 28.66,18.09zm170.87 9.63c-0.01,0 17.64,-134.72 -23.68,-146.87 -42.55,-12.52 -63.92,15.38 -43.04,52.87 18.2,32.68 46.63,55.46 60.58,84.42 0.03,0.07 6.4,9.67 6.14,9.58zm261.11 -40.68c-6.92,-12.97 -10.56,-13.09 -16.78,-31.78 -11.09,-33.28 -17.25,-25.57 -16.11,-67.9 1.09,-40.36 -15.53,-59.26 -57.37,-56.86 -21.44,1.24 -18.57,45.53 -12.75,59.73 13.98,34.14 18.4,41.17 40.59,71.31 50.47,68.58 135.93,163.13 62.42,25.5zm362.68 23.76c-0.97,-8.97 -26.02,-75.38 -36.47,-87.56 -10.45,-12.19 -3.87,-18.14 -28.9,-32.52 -25.03,-14.37 -51.9,-30.43 -80.62,-39.59 -28.73,-9.16 -51.15,-48.11 -77.29,-48.11 -26.14,0 -60.66,-5.43 -66.93,5.01 -6.26,10.44 6.66,46.39 28.05,65.07 21.39,18.67 64.9,61.54 97.85,78.56 32.95,17.02 50.03,32.09 68.46,45.37 18.43,13.28 77.61,20.62 88.68,17.73 11.07,-2.89 8.14,5.01 7.17,-3.96zm-43.37 -227.77c13.18,24.04 74.15,94.03 100.08,110.37 30.87,19.45 18.69,25.41 62.12,40.44 8.04,2.78 31.74,9.38 32.72,-0.26 3.06,-30.2 10.59,-41.42 -4.78,-74.88 -22.66,-49.35 -53.54,-53.71 -104.6,-70.78 -14.69,-4.91 -98.73,-28.94 -85.54,-4.89zm241.6 -0.07c12.19,15.3 47.07,42.48 55.92,60.69 8.01,16.48 64.39,54.33 83.76,60.77 5.59,1.85 30.88,14.34 30.88,6.8 0,-30.71 -25.7,-78.47 -54.22,-94.55 -13.97,-7.87 -33.24,-26.07 -51.24,-31.31 -2.52,-0.73 -69.19,-30.19 -71.43,-31.36 -3.61,-1.89 -30.08,-15.58 -31.14,-12.66 -3.74,10.23 30.25,32.57 37.47,41.62zm620.96 855.86c2.92,-16.15 -1.98,-33.21 3.61,-55.34 3.11,-12.29 -12.67,-92.85 -24.31,-96.33 -44.99,-13.42 -51.33,7.92 -51.33,46.42 0,16.35 45.59,68.59 55.29,86.98 2.26,4.29 16.55,19.29 16.74,18.27zm190.92 -31.66c2.62,21.85 20.78,-98.39 -13.51,-121.36 -5.02,-3.37 -42.42,-8.16 -42.42,17.92 0,42.41 50.7,59.79 55.93,103.44zm170.9 -12.9c12.4,-20.9 44.49,-58.11 25.82,-87.72 -2.87,-4.54 -58.57,-38.69 -53.96,27.28 1.21,17.33 24.75,66.15 28.14,60.44z"/>
  </g>
 </g>
</svg>
